<svg xmlns="http://www.w3.org/2000/svg" width="1200" height="1750" fill="none" viewBox="0 0 1200 1750">
  <path fill="#06C755" d="M0 0h1200v1750H0z"/>
  <path fill="#fff" d="M476.5 419h282.75v172.25H476.5V419zM460.25 354H769a3.25 3.25 0 013.25 3.25v58.5A3.25 3.25 0 01769 419H460.25v-65zM343.146 739.854c11.928 0 20.576-7.485 21.533-17.978l.034-.376h-10.049l-.068.342c-1.333 5.845-5.503 9.262-11.45 9.262-7.896 0-12.955-6.425-12.955-16.816v-.034c0-10.322 5.059-16.68 12.955-16.68 6.152 0 10.185 3.555 11.347 8.989l.137.582h10.049l-.034-.308c-.957-10.459-9.537-18.013-21.499-18.013-14.39 0-23.482 9.571-23.482 25.464v.034c0 15.894 9.058 25.532 23.482 25.532zM389.066 739.752c11.075 0 18.15-7.109 18.15-19.072v-.069c0-11.86-7.212-19.004-18.184-19.004-10.937 0-18.115 7.212-18.115 19.004v.069c0 11.928 7.007 19.072 18.149 19.072zm.035-7.827c-4.922 0-8.033-4.068-8.033-11.245v-.069c0-7.075 3.145-11.176 7.964-11.176 4.854 0 8.032 4.101 8.032 11.176v.069c0 7.143-3.11 11.245-7.963 11.245zM414.377 739h9.98v-21.055c0-4.785 2.837-8.066 7.315-8.066 4.477 0 6.733 2.734 6.733 7.519V739h9.981v-23.652c0-8.579-4.58-13.741-12.647-13.741-5.537 0-9.297 2.564-11.177 6.768h-.205v-6.016h-9.98V739zM473.833 751.715c11.006 0 17.876-5.571 17.876-13.74v-35.616h-9.98v6.255h-.206c-1.982-4.272-5.981-7.007-11.142-7.007-9.263 0-15.005 6.939-15.005 18.628v.035c0 11.381 5.674 18.217 14.834 18.217 5.298 0 9.399-2.426 11.313-6.255h.206v5.606c0 4.101-2.735 6.767-7.896 6.767-4.17 0-6.836-1.572-7.622-3.383l-.103-.24h-9.707l.035.308c.957 5.879 7.314 10.425 17.397 10.425zm-.171-20.542c-4.99 0-8.135-4.068-8.135-10.664v-.034c0-6.563 3.179-10.596 8.135-10.596 4.854 0 8.101 4.067 8.101 10.596v.034c0 6.562-3.213 10.664-8.101 10.664zM500.271 739h9.981v-20.508c0-5.332 2.871-8.271 7.793-8.271 1.435 0 2.803.205 3.623.547v-8.785a11.257 11.257 0 00-2.871-.376c-4.273 0-7.246 2.632-8.34 7.144h-.205v-6.392h-9.981V739zM537.784 739.581c4.82 0 8.716-2.29 10.801-6.05h.205V739h9.981v-25.122c0-7.383-6.119-12.271-15.586-12.271-9.673 0-15.484 4.854-16.031 11.622l-.034.41h9.126l.068-.308c.479-2.358 2.735-4.102 6.46-4.102 3.897 0 6.016 2.017 6.016 5.264v2.256l-9.058.547c-9.091.581-14.253 4.477-14.253 11.142v.069c0 6.46 4.957 11.074 12.305 11.074zm-2.427-11.587v-.068c0-2.598 2.017-4.238 5.879-4.478l7.554-.478v2.632c0 3.828-3.281 6.699-7.759 6.699-3.452 0-5.674-1.607-5.674-4.307zM581.791 739.752c2.085 0 3.691-.205 4.819-.376v-7.314c-.615.068-1.264.17-2.153.17-3.008 0-4.546-1.162-4.546-4.58v-17.773h6.699v-7.52h-6.699v-8.955h-10.083v8.955h-5.093v7.52h5.093v18.867c0 7.861 3.828 11.006 11.963 11.006zM606.589 739.752c5.537 0 9.297-2.598 11.177-6.802h.205V739h9.98v-36.641h-9.98v21.055c0 4.785-2.837 8.066-7.315 8.066-4.477 0-6.733-2.768-6.733-7.553v-21.568h-9.981v23.653c0 8.579 4.58 13.74 12.647 13.74zM636.685 739h9.98v-49.321h-9.98V739zM666.302 739.581c4.819 0 8.716-2.29 10.801-6.05h.205V739h9.98v-25.122c0-7.383-6.118-12.271-15.586-12.271-9.673 0-15.483 4.854-16.03 11.622l-.034.41h9.126l.068-.308c.479-2.358 2.734-4.102 6.46-4.102 3.896 0 6.016 2.017 6.016 5.264v2.256l-9.058.547c-9.092.581-14.253 4.477-14.253 11.142v.069c0 6.46 4.956 11.074 12.305 11.074zm-2.427-11.587v-.068c0-2.598 2.017-4.238 5.879-4.478l7.554-.478v2.632c0 3.828-3.282 6.699-7.759 6.699-3.452 0-5.674-1.607-5.674-4.307zM710.309 739.752c2.085 0 3.691-.205 4.819-.376v-7.314c-.615.068-1.265.17-2.153.17-3.008 0-4.546-1.162-4.546-4.58v-17.773h6.699v-7.52h-6.699v-8.955h-10.083v8.955h-5.093v7.52h5.093v18.867c0 7.861 3.828 11.006 11.963 11.006zM727.826 697.643c3.008 0 5.332-2.359 5.332-5.196 0-2.837-2.324-5.195-5.332-5.195s-5.332 2.358-5.332 5.195 2.324 5.196 5.332 5.196zM722.836 739h9.98v-36.641h-9.98V739zM758.332 739.752c11.074 0 18.149-7.109 18.149-19.072v-.069c0-11.86-7.211-19.004-18.183-19.004-10.938 0-18.115 7.212-18.115 19.004v.069c0 11.928 7.006 19.072 18.149 19.072zm.034-7.827c-4.922 0-8.032-4.068-8.032-11.245v-.069c0-7.075 3.145-11.176 7.964-11.176 4.853 0 8.032 4.101 8.032 11.176v.069c0 7.143-3.11 11.245-7.964 11.245zM783.643 739h9.98v-21.055c0-4.785 2.837-8.066 7.315-8.066 4.477 0 6.733 2.734 6.733 7.519V739h9.98v-23.652c0-8.579-4.58-13.741-12.646-13.741-5.537 0-9.297 2.564-11.177 6.768h-.205v-6.016h-9.98V739zM841.048 739.752c9.433 0 16.03-4.717 16.03-11.895v-.034c0-5.4-3.144-8.408-10.801-10.014l-6.22-1.333c-3.692-.787-4.956-2.017-4.956-3.897v-.034c0-2.358 2.153-3.897 5.605-3.897 3.691 0 5.845 1.983 6.187 4.615l.034.273h9.194v-.342c-.239-6.425-5.674-11.587-15.415-11.587-9.331 0-15.347 4.512-15.347 11.485v.034c0 5.469 3.589 9.023 10.699 10.527l6.22 1.299c3.589.786 4.82 1.914 4.82 3.862v.035c0 2.358-2.29 3.828-6.05 3.828-3.999 0-6.152-1.675-6.802-4.546l-.068-.308h-9.741l.034.308c.786 6.938 6.425 11.621 16.577 11.621zM867.521 722.423h8.613l.82-32.744H866.7l.821 32.744zm4.306 16.987c3.111 0 5.571-2.358 5.571-5.366 0-3.008-2.46-5.366-5.571-5.366-3.11 0-5.571 2.358-5.571 5.366 0 3.008 2.461 5.366 5.571 5.366zM727 261c0 21.539-17.461 39-39 39s-39-17.461-39-39 17.461-39 39-39 39 17.461 39 39z M504.699 180.728a4.875 4.875 0 01-1.446 6.741c-1.949 1.261-4.542 3.508-6.065 5.958-1.467 2.361-1.472 3.96-.527 5.386 1.012 1.527 2.457 2.081 4.915 1.721 1.86-.272 3.825-1.054 5.442-1.923a46 46 0 012.169-1.332 4.875 4.875 0 015.216 8.227c-.675.47-1.468.97-2.353 1.464-2.808 1.864-5.968 4.465-8.09 7.256-1.313 1.727-2.003 3.233-2.201 4.441-.171 1.04-.018 2.023.795 3.148 1.519 2.102 3.803 2.737 7.572 1.724 3.847-1.034 7.884-3.564 10.394-5.643a4.875 4.875 0 116.22 7.508c-3.163 2.621-8.436 6.033-14.083 7.551-5.724 1.538-13.117 1.335-18.005-5.428-2.39-3.307-3.089-6.931-2.515-10.436.457-2.792 1.687-5.332 3.169-7.524-2.511-.876-4.899-2.54-6.773-5.369-3.86-5.826-2.197-11.781.374-15.917 2.514-4.046 6.328-7.238 9.051-8.999a4.875 4.875 0 016.741 1.446zM384.125 452.084a4.875 4.875 0 016.604 1.979c1.774 3.291 3.91 8.605 4.412 13.966.497 5.307-.572 12.198-7.229 15.839-2.99 1.636-6.114 1.925-9.052 1.084-2.416-.692-4.461-2.072-6.129-3.606-1.125 1.845-2.782 3.497-5.153 4.665-5.961 2.936-11.169.192-14.341-2.821-3.113-2.958-5.282-6.956-6.383-9.694a4.875 4.875 0 019.045-3.64c.788 1.958 2.292 4.592 4.054 6.266 1.704 1.619 2.574 1.508 3.317 1.142.954-.47 1.555-1.278 1.751-3.024.206-1.844-.171-4.12-.811-6.141a44.424 44.424 0 01-.818-2.171 4.875 4.875 0 019.068-3.56c.314.713.623 1.51.908 2.366 1.355 3.261 3.353 6.826 5.561 9.049 1.105 1.112 1.999 1.619 2.614 1.796.454.129.934.149 1.689-.264 1.608-.88 2.549-2.669 2.202-6.376-.343-3.653-1.906-7.686-3.288-10.25a4.877 4.877 0 011.979-6.605z M799.414 230.717c-2.114-.786-4.414.661-4.414 2.778v26.508c0 2.55 3.212 3.931 5.303 2.279l22.812-18.025c1.847-1.46 1.362-4.221-.889-5.058l-22.812-8.482zM837.25 425.5c0 7.18-5.82 13-13 13s-13-5.82-13-13 5.82-13 13-13 13 5.82 13 13zM385.578 317.519l7.627-35.75c.315-1.474 1.528-2.519 2.927-2.519h15.61c2.151 0 3.605 2.373 2.767 4.516l-13.982 35.75c-.47 1.203-1.56 1.984-2.767 1.984h-9.254c-1.932 0-3.362-1.944-2.928-3.981z M646.846 141.404a6.498 6.498 0 010 9.192l-16.25 16.25a6.498 6.498 0 01-9.192 0 6.498 6.498 0 010-9.192l16.25-16.25a6.498 6.498 0 019.192 0z"/>
  <path fill="#06C755" d="M739.75 474.25l-143 120.25h143V474.25z"/>
  <path fill="#000" fill-rule="evenodd" d="M463.5 588V412.5h-13V601h295.75V412.5h-13V588H463.5zM519.602 318.36c-6.068-29.11 20.764-53.831 49.973-47.993 19.431 3.884 33.676 20.421 33.676 39.942V354H562.7c-20.563 0-38.576-13.948-42.705-33.758l-.393-1.882zm47.425-35.245c-20.966-4.19-38.681 13.486-34.698 32.592l.392 1.882C535.521 331.021 547.93 341 562.7 341h27.551v-30.691c0-12.962-9.509-24.453-23.224-27.194z" clip-rule="evenodd"/>
  <path fill="#000" fill-rule="evenodd" d="M673.898 318.36c6.068-29.11-20.764-53.831-49.973-47.993-19.431 3.884-33.676 20.421-33.676 39.942V354H630.8c20.563 0 38.576-13.948 42.705-33.758l.393-1.882zm-47.425-35.245c20.966-4.19 38.681 13.486 34.698 32.592l-.392 1.882C657.979 331.021 645.57 341 630.8 341h-27.551v-30.691c0-12.962 9.509-24.453 23.224-27.194z M590.25 594.5v-247h13v247h-13z" clip-rule="evenodd"/>
  <path fill="#000" fill-rule="evenodd" d="M418 594.5a6.5 6.5 0 016.5-6.5h347.75a6.5 6.5 0 110 13H424.5a6.5 6.5 0 01-6.5-6.5zM434.25 347.5a6.5 6.5 0 016.5-6.5h312a6.5 6.5 0 016.5 6.5v65a6.5 6.5 0 01-6.5 6.5h-117a6.5 6.5 0 110-13h110.5v-52h-299v52H606.5a6.5 6.5 0 110 13H440.75a6.5 6.5 0 01-6.5-6.5v-65z" clip-rule="evenodd"/>
</svg>